<?xml version="1.0" encoding="UTF-8" standalone="no"?>
<!-- Created with Inkscape (http://www.inkscape.org/) -->

<svg
   xmlns:dc="http://purl.org/dc/elements/1.1/"
   xmlns:cc="http://creativecommons.org/ns#"
   xmlns:rdf="http://www.w3.org/1999/02/22-rdf-syntax-ns#"
   xmlns:svg="http://www.w3.org/2000/svg"
   xmlns="http://www.w3.org/2000/svg"
   xmlns:sodipodi="http://sodipodi.sourceforge.net/DTD/sodipodi-0.dtd"
   xmlns:inkscape="http://www.inkscape.org/namespaces/inkscape"
   version="1.1"
   id="svg3680"
   width="101.21487"
   height="95.436729"
   viewBox="0 0 101.21487 95.436731"
   sodipodi:docname="parrot.svg"
   inkscape:version="0.92.0 r15299">
  <metadata
     id="metadata3686">
    <rdf:RDF>
      <cc:Work
         rdf:about="">
        <dc:format>image/svg+xml</dc:format>
        <dc:type
           rdf:resource="http://purl.org/dc/dcmitype/StillImage" />
        <dc:title></dc:title>
      </cc:Work>
    </rdf:RDF>
  </metadata>
  <defs
     id="defs3684" />
  <sodipodi:namedview
     pagecolor="#ffffff"
     bordercolor="#666666"
     borderopacity="1"
     objecttolerance="10"
     gridtolerance="10"
     guidetolerance="10"
     inkscape:pageopacity="0"
     inkscape:pageshadow="2"
     inkscape:window-width="1440"
     inkscape:window-height="878"
     id="namedview3682"
     showgrid="false"
     inkscape:measure-start="0,0"
     inkscape:measure-end="0,0"
     inkscape:zoom="2"
     inkscape:cx="57.074124"
     inkscape:cy="43.579183"
     inkscape:window-x="1912"
     inkscape:window-y="-8"
     inkscape:window-maximized="1"
     inkscape:current-layer="svg3680" />
  <path
     style="fill:#e2e3db;stroke:none;stroke-width:1px;stroke-linecap:butt;stroke-linejoin:miter;stroke-opacity:1"
     d="m 56.393422,7.561369 -5.460284,2.85572 -4.164391,31.366156 20.416813,1.187025 4.484082,0.179655 L 82.91697,7.729239 65.189475,3.274949 50.933138,10.417089 Z"
     id="path4663"
     inkscape:connector-curvature="0"
     sodipodi:nodetypes="ccccccccc" />
  <path
     style="fill:#44aa00;stroke:none;stroke-width:1.29600573px;stroke-linecap:butt;stroke-linejoin:miter;stroke-opacity:1"
     d="M 43.157858,3.183383 28.032764,23.837602 48.90539,11.632835 Z"
     id="path4639"
     inkscape:connector-curvature="0"
     sodipodi:nodetypes="cccc" />
  <path
     style="fill:#5fbcd3;stroke:none;stroke-width:1px;stroke-linecap:butt;stroke-linejoin:miter;stroke-opacity:1"
     d="M 40.833627,0 14.956503,14.244288 0,75.494727 40.121413,95.436727 78.818396,77.868777 67.18556,42.97027 46.768747,41.783245 49.3802,19.704599 50.584095,8.946906 32.524459,20.891623 44.394699,5.222905 Z"
     id="path4641"
     inkscape:connector-curvature="0"
     sodipodi:nodetypes="cccccccccccc" />
  <g
     id="g4675"
     transform="translate(-17.80536,-27.301553)">
    <path
       sodipodi:nodetypes="ccccc"
       inkscape:connector-curvature="0"
       id="path4637"
       d="M 58.638987,27.301553 83.1711,30.576502 70.689028,36.768943 66.71075,38.934388 Z"
       style="fill:#53cd00;fill-opacity:1;stroke:none;stroke-width:1.16933608px;stroke-linecap:butt;stroke-linejoin:miter;stroke-opacity:1" />
    <path
       inkscape:connector-curvature="0"
       id="path4665"
       d="M 72.016465,36.038015 77.220452,40.066909 100.72233,35.030792 96.514518,31.76657 82.994835,30.576502 Z"
       style="fill:#9dcb25;fill-opacity:1;stroke:none;stroke-width:1px;stroke-linecap:butt;stroke-linejoin:miter;stroke-opacity:1" />
  </g>
  <path
     style="fill:#515579;fill-opacity:1;stroke:none;stroke-width:1.03579462px;stroke-linecap:butt;stroke-linejoin:miter;stroke-opacity:1"
     d="M 78.226476,6.443141 75.033642,19.510846 68.647975,28.033263 90.03996,32.389165 101.21487,38.44955 96.26597,17.42759 89.40139,10.609656 78.709158,4.465017 Z"
     id="path4647"
     inkscape:connector-curvature="0"
     sodipodi:nodetypes="ccccccccc" />
  <path
     style="fill:#515579;fill-opacity:1;stroke:none;stroke-width:0.89122707px;stroke-linecap:butt;stroke-linejoin:miter;stroke-opacity:1"
     d="M 72.983831,29.720281 90.30327,33.413433 82.58411,44.325019 68.983714,42.982054 Z"
     id="path4649"
     inkscape:connector-curvature="0"
     sodipodi:nodetypes="ccccc" />
  <path
     style="fill:#515579;fill-opacity:1;stroke:none;stroke-width:1px;stroke-linecap:butt;stroke-linejoin:miter;stroke-opacity:1"
     d="m 53.203882,16.626378 4.532505,2.350188 6.37908,-2.685929 -6.714821,5.036117 z"
     id="path4651"
     inkscape:connector-curvature="0" />
  <path
     style="fill:#515579;fill-opacity:1;stroke:none;stroke-width:1px;stroke-linecap:butt;stroke-linejoin:miter;stroke-opacity:1"
     d="m 53.371752,5.546922 8.897139,7.554175 7.218434,2.014446 z"
     id="path4653"
     inkscape:connector-curvature="0" />
  <path
     style="fill:#515579;fill-opacity:1;stroke:none;stroke-width:1px;stroke-linecap:butt;stroke-linejoin:miter;stroke-opacity:1"
     d="M 58.072128,4.203958 71.166031,14.10832 63.779726,6.386275 Z"
     id="path4655"
     inkscape:connector-curvature="0" />
  <path
     style="fill:#ff4d00;fill-opacity:1;stroke:none;stroke-width:1px;stroke-linecap:butt;stroke-linejoin:miter;stroke-opacity:1"
     d="M 50.933138,10.417089 47.575727,9.745607 32.436032,20.222062 48.247209,28.882849 Z"
     id="path4661"
     inkscape:connector-curvature="0" />
  <path
     style="fill:#c9ff00;fill-opacity:1;stroke:none;stroke-width:1px;stroke-linecap:butt;stroke-linejoin:miter;stroke-opacity:1"
     d="M 78.709158,4.465017 67.97649,3.532475 l 6.04334,6.04334 4.147962,-0.349999 z"
     id="path4671"
     inkscape:connector-curvature="0"
     sodipodi:nodetypes="ccccc" />
  <path
     style="fill:#9698b4;fill-opacity:1;stroke:none;stroke-width:1px;stroke-linecap:butt;stroke-linejoin:miter;stroke-opacity:1"
     d="m 78.709158,4.465017 -1.331917,5.78228 10.575849,3.525282 1.4483,-3.162923 z"
     id="path4667"
     inkscape:connector-curvature="0" />
  <path
     style="fill:#a8abd0;fill-opacity:1;stroke:none;stroke-width:1px;stroke-linecap:butt;stroke-linejoin:miter;stroke-opacity:1"
     d="m 87.95309,13.772579 1.4483,-3.162923 6.86458,6.817934 z"
     id="path4669"
     inkscape:connector-curvature="0" />
  <path
     style="fill:#61e3ff;fill-opacity:1;stroke:none;stroke-width:1px;stroke-linecap:butt;stroke-linejoin:miter;stroke-opacity:1"
     d="M 40.833627,0 44.394699,5.222905 18.286808,19.312307 14.956503,14.244288 Z"
     id="path4677"
     inkscape:connector-curvature="0" />
  <path
     style="fill:#ff8900;fill-opacity:1;stroke:none;stroke-width:1px;stroke-linecap:butt;stroke-linejoin:miter;stroke-opacity:1"
     d="M 32.436032,20.222062 47.832024,17.29786 48.247209,28.882849 Z"
     id="path4679"
     inkscape:connector-curvature="0" />
  <path
     style="fill:#ffbc00;fill-opacity:1;stroke:none;stroke-width:1px;stroke-linecap:butt;stroke-linejoin:miter;stroke-opacity:1"
     d="m 32.436032,20.222062 -2.062545,17.388135 16.39526,4.173048 1.478462,-12.900396 z"
     id="path4681"
     inkscape:connector-curvature="0"
     sodipodi:nodetypes="ccccc" />
  <path
     style="fill:#ffe900;fill-opacity:1;stroke:none;stroke-width:1px;stroke-linecap:butt;stroke-linejoin:miter;stroke-opacity:1"
     d="m 30.373487,37.610197 -5.707598,50.19329 15.455524,7.63324 17.111362,-7.80111 -10.464028,-45.852372 z"
     id="path4683"
     inkscape:connector-curvature="0" />
  <path
     style="fill:#4485a6;fill-opacity:1;stroke:none;stroke-width:1px;stroke-linecap:butt;stroke-linejoin:miter;stroke-opacity:1"
     d="M 46.768747,41.783245 67.18556,42.97027 71.669642,56.579569 55.72194,49.529006 50.182212,56.579569 Z"
     id="path4685"
     inkscape:connector-curvature="0" />
  <path
     style="fill:#fff76b;fill-opacity:1;stroke:none;stroke-width:1px;stroke-linecap:butt;stroke-linejoin:miter;stroke-opacity:1"
     d="m 24.665889,87.803487 15.455524,7.63324 17.111362,-7.80111 -3.525281,-15.779829 -19.808725,17.290669 -7.722045,-13.93326 z"
     id="path4687"
     inkscape:connector-curvature="0" />
  <path
     style="fill:#515579;fill-opacity:1;stroke:none;stroke-width:1px;stroke-linecap:butt;stroke-linejoin:miter;stroke-opacity:1"
     d="M 64.954823,29.208357 57.736387,36.938714 43.46739,34.252786 57.400646,34.588527 Z"
     id="path4659"
     inkscape:connector-curvature="0"
     sodipodi:nodetypes="ccccc" />
  <path
     style="fill:#515579;fill-opacity:1;stroke:none;stroke-width:1px;stroke-linecap:butt;stroke-linejoin:miter;stroke-opacity:1"
     d="m 65.962044,24.012682 -10.072233,6.04334 -11.079457,-5.036116 c 0,0 10.575845,6.546951 11.415198,6.546951 0.839352,0 9.736492,-7.554175 9.736492,-7.554175 z"
     id="path4657"
     inkscape:connector-curvature="0" />
</svg>
